PathFileType	4	(X/Y/Z)	C:/Users/opensim2020/Desktop/walking_exp_matlab/subject02_walking17_run.trc																																																																																																																																																							
DataRate	CameraRate	NumFrames	NumMarkers	Units	OrigDataRate	OrigDataStartFrame	OrigNumFrames																																																																																																																																																			
100	100	4	51	mm	100	231	112																																																																																																																																																			
Frame#	Time	LSHO			RELB			LANK			LTOE			LUPA			RUPA			RWRB			LKNE			RSHO			RFIN			RFRM			RASI			LTHI			LWRB			RTHI			LASI			LFHD			RKNE			LELB			LTIB			RWRA			STRN			RTIB			RFHD			RANK			RBHD			RTOE			RHEE			C7			LHEE			LFRM			CLAV			LWRA			LBHD			RBAK			LFIN			T10			LPSI			RPSI			*39			*40			*41			*42			*43			*44			*45			*46			*47			*48			*49			*50		
		X1	Y1	Z1	X2	Y2	Z2	X3	Y3	Z3	X4	Y4	Z4	X5	Y5	Z5	X6	Y6	Z6	X7	Y7	Z7	X8	Y8	Z8	X9	Y9	Z9	X10	Y10	Z10	X11	Y11	Z11	X12	Y12	Z12	X13	Y13	Z13	X14	Y14	Z14	X15	Y15	Z15	X16	Y16	Z16	X17	Y17	Z17	X18	Y18	Z18	X19	Y19	Z19	X20	Y20	Z20	X21	Y21	Z21	X22	Y22	Z22	X23	Y23	Z23	X24	Y24	Z24	X25	Y25	Z25	X26	Y26	Z26	X27	Y27	Z27	X28	Y28	Z28	X29	Y29	Z29	X30	Y30	Z30	X31	Y31	Z31	X32	Y32	Z32	X33	Y33	Z33	X34	Y34	Z34	X35	Y35	Z35	X36	Y36	Z36	X37	Y37	Z37	X38	Y38	Z38	X39	Y39	Z39	X40	Y40	Z40	X41	Y41	Z41	X42	Y42	Z42	X43	Y43	Z43	X44	Y44	Z44	X45	Y45	Z45	X46	Y46	Z46	X47	Y47	Z47	X48	Y48	Z48	X49	Y49	Z49	X50	Y50	Z50	X51	Y51	Z51
																																																																																																																																																										
1	0	-1975.61133	1427.95435	-183.94469	-2041.53308	1060.19934	261.51779	-2285.99463	273.91757	-237.6982	-2233.30566	128.4968	-219.11203	-2007.7511	1407.93286	-362.72617	-2089.28296	1197.67188	228.63603	-1820.73523	1058.14514	135.41301	-1954.23633	470.47766	-190.21429	-2039.06116	1377.46631	147.16512	-1784.82263	1109.82104	109.61395	-1927.37366	1057.38403	202.04294	-2142.48975	879.70056	71.04439	-2014.0376	629.25403	-237.96776	-2039.06628	1138.47644	-639.18439	-2237.97974	599.05615	96.24287	-2061.49707	883.43622	-180.55943	-1950.11218	1645.80908	-92.98643	-2239.68652	391.02698	46.69411	-2031.91785	1372.77271	-500.18573	-2101.91577	409.25757	-223.47086	-1849.24792	1099.45825	107.76709	-1966.13391	1153.46692	-33.9794	-2346.91016	240.74965	14.40748	-1944.60767	1634.98706	52.68157	-2444.87354	87.11529	-55.96973	-2061.71191	1521.95825	45.59098	-2317.91455	24.05574	-11.05416	-2482.8374	42.52445	-124.5925	-2078.4519	1438.63147	-41.57656	-2341.43188	288.04776	-200.48935	-2033.60071	1253.48511	-586.427	-1951.45264	1339.60767	-31.15333	-2052.13403	1116.19788	-585.91382	-2054.13379	1537.52185	-96.38355	-2189.30029	1304.77026	-10.76895	-2040.07434	1068.6532	-648.12415	-2210.49976	1215.89807	-86.28129	-2261.90137	993.90546	-158.10374	-2297.58301	999.90967	-58.09279	2845.96729	1034.64294	-3356.99121	NaN	NaN	NaN	NaN	NaN	NaN	NaN	NaN	NaN	NaN	NaN	NaN	NaN	NaN	NaN	-2065.11206	1683.60803	-4.43934	NaN	NaN	NaN	NaN	NaN	NaN	NaN	NaN	NaN	NaN	NaN	NaN	NaN	NaN	NaN
2	0.01	-1939.48108	1433.18286	-183.48962	-1986.53271	1071.21216	262.58624	-2208.36475	253.85953	-233.31512	-2141.83008	116.18397	-208.20828	-1978.02563	1415.78735	-361.23816	-2039.27917	1206.71631	231.71141	-1772.7428	1086.9281	126.48034	-1898.46509	485.72647	-183.86107	-1997.51587	1385.91003	146.40924	-1742.09546	1141.72229	99.54806	-1875.63953	1077.18665	197.98399	-2100.2959	883.04724	73.2284	-1967.75635	642.74884	-232.55524	-2015.22937	1142.0415	-627.55115	-2215.88989	603.24591	94.42651	-2022.12476	893.35669	-179.79617	-1913.28711	1651.57629	-95.37516	-2229.09351	394.9913	44.72557	-2008.36438	1381.89087	-498.11865	-2038.23413	406.23981	-220.57538	-1805.46204	1126.24231	100.86318	-1925.47375	1159.50037	-35.32428	-2342.98145	246.92058	13.85447	-1906.69727	1641.08118	50.19724	-2443.68628	93.35628	-53.62092	-2023.25452	1527.30566	43.97932	-2317.56543	23.88336	-10.87449	-2482.75293	51.58176	-121.35754	-2041.10559	1443.15027	-40.72286	-2266.00928	263.9639	-198.26378	-2010.80237	1259.18994	-579.21564	-1912.01416	1345.78247	-32.16104	-2023.01453	1122.13782	-572.64636	-2016.43787	1542.60803	-97.99364	-2149.0249	1308.78015	-7.50411	-2011.6615	1072.62317	-633.06396	-2171.63452	1219.8866	-82.83836	-2223.24634	997.79327	-151.92664	-2257.74951	1002.55133	-52.56118	2846.07178	1034.37878	-3357.12695	NaN	NaN	NaN	NaN	NaN	NaN	NaN	NaN	NaN	NaN	NaN	NaN	NaN	NaN	NaN	-2027.94507	1688.74622	-6.26317	NaN	NaN	NaN	NaN	NaN	NaN	NaN	NaN	NaN	NaN	NaN	NaN	NaN	NaN	NaN
3	0.02	-1903.19592	1438.62341	-184.37631	-1933.42273	1083.89502	263.65323	-2129.01758	232.9449	-226.57597	-2049.27734	104.86469	-197.51466	-1947.8623	1422.42603	-360.04935	-1989.59229	1218.29626	234.78766	-1728.93237	1114.42773	118.48766	-1845.61914	500.63058	-178.88602	-1955.46533	1395.71143	145.06793	-1702.49512	1171.08838	90.26269	-1826.8446	1097.34802	194.21243	-2054.96313	891.23694	75.68976	-1922.42969	656.52942	-227.61093	-1989.95569	1143.37891	-613.28094	-2194.21436	609.03326	92.88046	-1982.36609	905.22223	-178.2336	-1875.85413	1657.90454	-98.08643	-2219.59912	402.36023	44.17211	-1983.83594	1388.79468	-495.76596	-1975.12488	402.05951	-218.08846	-1764.46936	1151.69409	94.82581	-1885.0979	1166.59082	-35.25723	-2337.82642	256.82666	15.19443	-1868.59045	1647.74243	47.31545	-2440.84839	103.15143	-48.52887	-1984.72375	1533.50439	41.9824	-2317.11108	24.18277	-9.99109	-2481.99683	64.76093	-116.00736	-2002.99133	1448.60681	-40.07349	-2189.05615	238.56509	-192.99037	-1987.14929	1263.14612	-570.89508	-1871.84668	1352.71875	-33.30391	-1993.08386	1126.39758	-557.40112	-1978.505	1548.45361	-100.027	-2108.63306	1313.73474	-2.51952	-1981.72742	1074.64771	-614.55139	-2132.44556	1224.54932	-77.79754	-2183.63989	1003.04523	-146.30222	-2216.92773	1005.79535	-45.34629	2845.22949	1034.31299	-3360.37646	NaN	NaN	NaN	NaN	NaN	NaN	NaN	NaN	NaN	NaN	NaN	NaN	NaN	NaN	NaN	-1990.5166	1694.6908	-8.55513	NaN	NaN	NaN	NaN	NaN	NaN	NaN	NaN	NaN	NaN	NaN	NaN	NaN	NaN	NaN
4	0.03	-1866.6051	1443.98926	-185.65479	-1882.72559	1097.39856	265.03253	-2049.16504	213.13466	-218.77603	-1956.22156	94.42	-187.14201	-1917.5011	1428.26147	-359.38116	-1940.17554	1230.56836	237.70747	-1687.98279	1139.58875	111.06095	-1796.58337	514.42682	-174.77376	-1912.81543	1406.01868	143.37624	-1665.69727	1197.80225	82.00403	-1781.0177	1116.92151	190.96312	-2009.51306	899.56525	76.0316	-1879.74573	670.0033	-223.909	-1963.10828	1142.37012	-597.01685	-2170.31348	618.6684	91.98022	-1941.54846	918.34113	-175.84595	-1836.229	1663.80688	-100.63995	-2207.99316	413.11066	45.05691	-1957.47278	1392.6875	-493.13843	-1912.70264	396.91089	-215.32753	-1726.18787	1175.12451	89.46803	-1845.12854	1173.40222	-35.41211	-2330.10889	270.21802	18.51628	-1830.396	1654.87195	44.1756	-2435.89746	116.40598	-42.1087	-1946.18567	1540.36182	39.72503	-2316.19385	24.13848	-8.51781	-2478.38159	81.88283	-108.54445	-1964.37659	1454.72083	-39.66548	-2109.49756	212.31975	-184.5278	-1962.01392	1264.61206	-561.41943	-1832.34778	1359.91357	-35.28028	-1962.32397	1128.8551	-540.33081	-1942.8844	1555.69775	-102.81445	-2068.29443	1319.5614	3.42502	-1950.64575	1074.78687	-594.83716	-2093.22876	1229.71338	-71.27261	-2143.64648	1008.86127	-140.72447	-2174.76172	1008.96265	-37.1763	2846.03345	1034.34912	-3357.3457	NaN	NaN	NaN	NaN	NaN	NaN	NaN	NaN	NaN	NaN	NaN	NaN	NaN	NaN	NaN	-1952.86816	1701.4032	-11.38216	NaN	NaN	NaN	NaN	NaN	NaN	NaN	NaN	NaN	NaN	NaN	NaN	NaN	NaN	NaN
